<svg width="68" height="66" viewBox="0 0 68 66" fill="none" xmlns="http://www.w3.org/2000/svg">
<g filter="url(#filter0_d_49_3969)">
<ellipse cx="34.2507" cy="29.1659" rx="18.9919" ry="17.85" fill="white"/>
</g>
<g clip-path="url(#clip0_49_3969)">
<path d="M38.1398 21.8159H31.4792C29.3114 21.8159 27.5479 23.4734 27.5479 25.5108V31.7711C27.5479 33.8084 29.3114 35.4659 31.4792 35.4659H38.1399C40.3075 35.4659 42.0711 33.8084 42.0711 31.7711V25.5108C42.0711 23.4734 40.3075 21.8159 38.1398 21.8159V21.8159ZM41.2196 31.7711C41.2196 33.3671 39.838 34.6657 38.1398 34.6657H31.4792C29.7809 34.6657 28.3993 33.3671 28.3993 31.7711V25.5108C28.3993 23.9147 29.7809 22.6161 31.4792 22.6161H38.1399C39.838 22.6161 41.2196 23.9147 41.2196 25.5108V31.7711Z" fill="#0F231F"/>
<path d="M34.809 24.9087C32.6193 24.9087 30.8379 26.583 30.8379 28.641C30.8379 30.699 32.6193 32.3733 34.809 32.3733C36.9987 32.3733 38.78 30.699 38.78 28.641C38.78 26.583 36.9987 24.9087 34.809 24.9087ZM34.809 31.5731C33.0889 31.5731 31.6893 30.2578 31.6893 28.641C31.6893 27.0243 33.0889 25.7089 34.809 25.7089C36.5292 25.7089 37.9286 27.0243 37.9286 28.641C37.9286 30.2578 36.5292 31.5731 34.809 31.5731Z" fill="#0F231F"/>
<path d="M38.8756 23.583C38.2285 23.583 37.7021 24.0778 37.7021 24.6859C37.7021 25.294 38.2285 25.7888 38.8756 25.7888C39.5226 25.7888 40.0491 25.294 40.0491 24.6859C40.0491 24.0777 39.5226 23.583 38.8756 23.583ZM38.8756 24.9885C38.698 24.9885 38.5536 24.8527 38.5536 24.6859C38.5536 24.5189 38.698 24.3832 38.8756 24.3832C39.0532 24.3832 39.1977 24.5189 39.1977 24.6859C39.1977 24.8527 39.0532 24.9885 38.8756 24.9885Z" fill="#0F231F"/>
</g>
<defs>
<filter id="filter0_d_49_3969" x="0.55879" y="0.815919" width="67.3834" height="65.1002" filterUnits="userSpaceOnUse" color-interpolation-filters="sRGB">
<feFlood flood-opacity="0" result="BackgroundImageFix"/>
<feColorMatrix in="SourceAlpha" type="matrix" values="0 0 0 0 0 0 0 0 0 0 0 0 0 0 0 0 0 0 127 0" result="hardAlpha"/>
<feOffset dy="4.2"/>
<feGaussianBlur stdDeviation="7.35"/>
<feColorMatrix type="matrix" values="0 0 0 0 0 0 0 0 0 0 0 0 0 0 0 0 0 0 0.15 0"/>
<feBlend mode="normal" in2="BackgroundImageFix" result="effect1_dropShadow_49_3969"/>
<feBlend mode="normal" in="SourceGraphic" in2="effect1_dropShadow_49_3969" result="shape"/>
</filter>
<clipPath id="clip0_49_3969">
<rect width="14.5232" height="13.65" fill="white" transform="translate(27.5479 21.8159)"/>
</clipPath>
</defs>
</svg>
