<svg width="22" height="30" viewBox="0 0 22 30" fill="none" xmlns="http://www.w3.org/2000/svg">
<path d="M10.8202 0.752441C4.99885 0.752441 0.262695 5.20383 0.262695 10.6752C0.262695 17.5521 10.8306 29.2993 10.8306 29.2993C10.8306 29.2993 21.3778 17.2139 21.3778 10.6752C21.3778 5.20383 16.6418 0.752441 10.8202 0.752441ZM14.0057 13.5806C13.1273 14.4059 11.9739 14.8187 10.8202 14.8187C9.66679 14.8187 8.51297 14.4059 7.63499 13.5806C5.87849 11.9299 5.87849 9.24385 7.63499 7.59296C8.48553 6.79321 9.61692 6.35274 10.8202 6.35274C12.0236 6.35274 13.1548 6.79339 14.0057 7.59296C15.7622 9.24385 15.7622 11.9299 14.0057 13.5806Z" fill="#EAF0EE"/>
</svg>
