<svg width="44" height="30" viewBox="0 0 44 30" fill="none" xmlns="http://www.w3.org/2000/svg">
<g clip-path="url(#clip0_49_3643)">
<path d="M40.5605 1.7751C40.5605 2.26439 40.9621 2.66103 41.4574 2.66103H42.3543C42.8497 2.66103 43.2512 2.26439 43.2512 1.7751C43.2512 1.28581 42.8497 0.88916 42.3543 0.88916H41.4574C40.9621 0.88916 40.5605 1.28581 40.5605 1.7751Z" fill="#212326"/>
<path d="M14.5512 29.2392H18.908L17.6397 27.9862C17.3033 27.654 16.847 27.4673 16.3713 27.4673H14.5512C7.61653 27.4673 1.99492 21.9142 1.99492 15.0642C1.99492 8.21409 7.61653 2.66104 14.5512 2.66104H28.9012C35.8358 2.66104 41.4574 8.21409 41.4574 15.0642C41.4574 21.9142 35.8358 27.4673 28.9012 27.4673H23.5331C22.8195 27.4673 22.1351 27.1873 21.6305 26.6889L20.1446 25.221C19.3036 24.3902 18.1629 23.9235 16.9736 23.9235H14.5512C9.59784 23.9235 5.58242 19.9571 5.58242 15.0642C5.58242 10.1712 9.59784 6.20478 14.5512 6.20478H28.9012C33.8545 6.20478 37.8699 10.1712 37.8699 15.0642C37.8699 19.9571 33.8545 23.9235 28.9012 23.9235H25.4544C24.7407 23.9235 24.0564 23.6435 23.5518 23.1451L22.0658 21.6772C21.2248 20.8465 20.0842 20.3798 18.8948 20.3798H14.5512C11.5792 20.3798 9.16992 17.9999 9.16992 15.0642C9.16992 12.1284 11.5792 9.74853 14.5512 9.74853H28.9012C31.8731 9.74853 34.2824 12.1284 34.2824 15.0642C34.2824 17.9641 31.9315 20.3217 29.0097 20.3787L29.0091 20.3798H27.6966C26.9829 20.3798 26.2986 20.0998 25.794 19.6014L24.308 18.1335C23.6179 17.4518 22.7262 17.0153 21.7712 16.8805L21.7262 16.836H14.5512C13.5605 16.836 12.7574 16.0427 12.7574 15.0642C12.7574 14.0856 13.5605 13.2923 14.5512 13.2923H28.9012C29.8918 13.2923 30.6949 14.0856 30.6949 15.0642C30.6949 16.0427 29.8918 16.836 28.9012 16.836H25.3137L26.5821 18.089C26.9184 18.4212 27.3747 18.6079 27.8504 18.6079H28.9012C30.8825 18.6079 32.4887 17.0213 32.4887 15.0642C32.4887 13.107 30.8825 11.5204 28.9012 11.5204H14.5512C12.5699 11.5204 10.9637 13.107 10.9637 15.0642C10.9637 17.0213 12.5699 18.6079 14.5512 18.6079H21.137C21.8507 18.6079 22.535 18.8879 23.0396 19.3863L24.5256 20.8542C25.3666 21.6849 26.5072 22.1517 27.6966 22.1517H29.3496V22.1381C33.1034 21.9094 36.0762 18.8297 36.0762 15.0642C36.0762 11.1499 32.8638 7.97666 28.9012 7.97666H14.5512C10.5886 7.97666 7.37617 11.1499 7.37617 15.0642C7.37617 18.9785 10.5886 22.1517 14.5512 22.1517H18.8948C19.6085 22.1517 20.2928 22.4317 20.7974 22.9301L22.2835 24.398C23.1244 25.2287 24.265 25.6954 25.4544 25.6954H28.9012C34.8452 25.6954 39.6637 20.9357 39.6637 15.0642C39.6637 9.19266 34.8452 4.43291 28.9012 4.43291H14.5512C8.60719 4.43291 3.78867 9.19266 3.78867 15.0642C3.78867 20.9357 8.60719 25.6954 14.5512 25.6954H16.9736C17.6872 25.6954 18.3716 25.9754 18.8762 26.4738L20.3622 27.9417C21.2032 28.7724 22.3438 29.2392 23.5331 29.2392H28.9012C36.8265 29.2392 43.2512 22.8928 43.2512 15.0642C43.2512 7.23552 36.8265 0.889159 28.9012 0.88916L14.5512 0.889163C6.62588 0.889164 0.201171 7.23553 0.201172 15.0642C0.201173 22.8928 6.62589 29.2392 14.5512 29.2392Z" fill="#212326"/>
</g>
<defs>
<clipPath id="clip0_49_3643">
<rect width="43.05" height="28.35" fill="white" transform="translate(0.201172 0.88916)"/>
</clipPath>
</defs>
</svg>
