<svg width="59" height="33" viewBox="0 0 59 33" fill="none" xmlns="http://www.w3.org/2000/svg">
<g clip-path="url(#clip0_49_3623)">
<path d="M58.1967 11.9923C58.2027 11.9485 58.2027 11.9043 58.1967 11.8605C58.2024 11.8248 58.2024 11.7884 58.1967 11.7527L57.7688 8.67338C57.7072 8.30498 57.5421 7.96066 57.2922 7.67891L57.2189 7.59504L57.0845 7.46323L49.6782 1.20883L49.886 1.41253C49.716 1.21315 49.5027 1.05368 49.2616 0.945853C49.0204 0.838026 48.7577 0.784589 48.4928 0.789482H46.244C45.8783 0.782379 45.521 0.896359 45.2296 1.11299C44.9236 0.897664 44.5552 0.784267 44.1785 0.789482H41.9297C41.6348 0.784791 41.3439 0.856552 41.0863 0.997519C40.8288 1.13849 40.6138 1.34366 40.4632 1.59225C40.2309 1.94731 40.1436 2.3751 40.2187 2.79041L40.4998 4.73143C40.3136 4.62793 40.1028 4.57423 39.8887 4.57568H28.9993C28.6086 4.57808 28.2269 4.69035 27.8993 4.89917C27.5826 5.09354 27.3283 5.37186 27.1661 5.70193L26.3228 4.99503C25.9909 4.69396 25.5528 4.53077 25.1006 4.53973H8.01488C7.6228 4.54673 7.23943 4.65412 6.90275 4.85125C6.44215 5.11555 6.10459 5.5453 5.96167 6.04941L0.535294 23.8421C0.433904 24.1353 0.42393 24.4515 0.50665 24.7503C0.589369 25.049 0.761036 25.3169 0.999719 25.5196C1.06191 25.5712 1.12722 25.6193 1.19527 25.6633C1.19527 25.6633 1.08526 25.5914 1.02415 25.5316L8.43045 31.7979C8.74375 32.0807 9.15337 32.2388 9.5792 32.2412H26.7994C27.1927 32.2312 27.5763 32.1196 27.9116 31.9177C28.1012 31.8161 28.2709 31.6822 28.4127 31.5223L28.4738 31.4384L28.5716 31.3187L28.6449 31.1868L29.4515 31.8698C29.7603 32.1414 30.1611 32.2907 30.5759 32.2892H47.8327C48.2256 32.2763 48.6085 32.165 48.9449 31.9657C49.1303 31.8579 49.2989 31.7247 49.446 31.5703L49.5071 31.4864L49.6048 31.3666C49.6568 31.2908 49.7019 31.2106 49.7393 31.1269C49.7792 31.0543 49.8119 30.9781 49.837 30.8993L54.7868 14.6522V14.5084C54.7929 14.4527 54.7929 14.3965 54.7868 14.3407V14.2329C54.7927 14.1971 54.7927 14.1608 54.7868 14.125C54.7923 14.0493 54.7923 13.9732 54.7868 13.8973H56.3756C56.5138 13.9098 56.6529 13.9098 56.7911 13.8973H56.9012C56.9906 13.8712 57.0767 13.835 57.1578 13.7895H57.2801L57.5 13.6218L57.5978 13.5499L57.7688 13.3342V13.2624L57.8911 13.0587C57.8843 13.019 57.8843 12.9785 57.8911 12.9389C57.8846 12.9194 57.8846 12.8984 57.8911 12.8789C57.9171 12.8087 57.9375 12.7366 57.9522 12.6633C57.9465 12.6396 57.9465 12.615 57.9522 12.5914C57.9463 12.5557 57.9463 12.5192 57.9522 12.4835C57.9522 12.4835 58.1967 12.0162 58.1967 11.9923Z" fill="black"/>
<path d="M25.6016 5.90562C25.6665 5.96313 25.7118 6.03877 25.7315 6.12232C25.7512 6.20587 25.7442 6.29333 25.7117 6.37289L20.2975 24.1536C20.2293 24.3477 20.0899 24.51 19.9064 24.609C19.7572 24.7068 19.5844 24.7646 19.4053 24.7767H2.19736C2.0504 24.7698 1.91118 24.7101 1.80626 24.609C1.74385 24.5523 1.70005 24.4788 1.68046 24.3977C1.66086 24.3166 1.66638 24.2317 1.69627 24.1536L7.12265 6.37289C7.18517 6.17632 7.32027 6.00968 7.50151 5.90562C7.65324 5.81475 7.82518 5.76131 8.0026 5.74985H25.2105C25.3563 5.75123 25.4961 5.80692 25.6016 5.90562ZM16.6188 20.5711L19.8575 9.95539H10.7891L7.56261 20.5711H16.6188ZM42.0274 6.08533C42.0861 6.15222 42.1595 6.20527 42.242 6.24053C42.3246 6.2758 42.4141 6.29237 42.5041 6.28902H44.7406C44.8258 6.28984 44.9097 6.26936 44.9846 6.22953C45.0594 6.1897 45.1226 6.13182 45.1684 6.06137C45.2081 6.00634 45.2361 5.94404 45.2508 5.87817C45.2655 5.81231 45.2665 5.74423 45.2539 5.67797L44.8139 2.51481C44.772 2.36842 44.6968 2.23324 44.594 2.11942C44.5352 2.05253 44.4619 1.99948 44.3793 1.96422C44.2968 1.92895 44.2072 1.91238 44.1173 1.91573H41.8808C41.7956 1.91492 41.7116 1.93539 41.6368 1.97523C41.5619 2.01506 41.4987 2.07293 41.453 2.14339C41.3674 2.31113 41.3308 2.41896 41.3674 2.51481L41.8197 5.67797C41.8428 5.83198 41.9157 5.9747 42.0274 6.08533ZM49.1282 2.49085C49.0862 2.34445 49.011 2.20926 48.9081 2.09545C48.8519 2.02881 48.7807 1.97578 48.7002 1.94045C48.6196 1.90513 48.5319 1.88847 48.4437 1.89177H46.1949C46.1112 1.88943 46.0283 1.90935 45.9552 1.94943C45.882 1.9895 45.8213 2.04825 45.7795 2.11942C45.6981 2.22571 45.6629 2.35924 45.6817 2.49085L46.1338 5.65399C46.1622 5.80639 46.2342 5.9477 46.3416 6.06137C46.4014 6.12695 46.4749 6.17911 46.5572 6.21426C46.6395 6.24941 46.7285 6.26674 46.8182 6.26505H49.067C49.1506 6.26613 49.2329 6.24568 49.3058 6.20572C49.3788 6.16577 49.4398 6.10774 49.4826 6.03741C49.5251 5.98381 49.5548 5.92153 49.5696 5.85519C49.5845 5.78885 49.5839 5.72011 49.5681 5.65399L49.1282 2.49085ZM40.0597 7.2835L39.8397 5.72588H28.9992C28.829 5.73508 28.6644 5.78888 28.5226 5.88164C28.4326 5.92977 28.3542 5.99647 28.293 6.07714C28.2319 6.15782 28.1893 6.25054 28.1682 6.34893L27.2638 9.32035C27.2277 9.39461 27.2153 9.47793 27.2284 9.5592C27.2416 9.64047 27.2794 9.71591 27.3371 9.77568C27.4401 9.87066 27.5747 9.92602 27.716 9.93145H40.8908L37.6521 20.5472H24.5139C24.3445 20.551 24.1795 20.6007 24.0373 20.6909C23.8645 20.7986 23.7382 20.965 23.6829 21.1582L22.7662 24.1297C22.7363 24.2059 22.7285 24.2888 22.7435 24.3691C22.7587 24.4495 22.7961 24.5241 22.8518 24.5849C22.9516 24.6863 23.0872 24.7463 23.2307 24.7527H40.4875C40.6659 24.7376 40.838 24.6801 40.9885 24.5849C41.169 24.4856 41.3044 24.3229 41.3674 24.1297L46.3294 7.88258H40.7441C40.6555 7.88429 40.5675 7.86816 40.4856 7.83519C40.4036 7.80222 40.3294 7.75308 40.2675 7.69086C40.1665 7.58221 40.095 7.45035 40.0597 7.30746V7.2835Z" fill="white"/>
</g>
<defs>
<clipPath id="clip0_49_3623">
<rect width="57.75" height="31.5" fill="white" transform="translate(0.451172 0.789169)"/>
</clipPath>
</defs>
</svg>
