<svg width="43" height="31" viewBox="0 0 43 31" fill="none" xmlns="http://www.w3.org/2000/svg">
<path fill-rule="evenodd" clip-rule="evenodd" d="M11.0847 5.15952L0.599609 15.5392C2.69682 17.6153 5.09255 19.3651 7.70458 20.7339C8.42656 22.6298 9.55824 24.4078 11.0996 25.9336C16.8987 31.6743 26.3007 31.6743 32.0996 25.9336C33.641 24.4078 34.7727 22.6298 35.4947 20.7338C38.1067 19.3651 40.5024 17.6153 42.5996 15.5392L32.123 5.16796C32.1153 5.1602 32.1075 5.15244 32.0996 5.14469C26.3007 -0.596002 16.8987 -0.596002 11.0996 5.14469C11.0946 5.14964 11.0897 5.15457 11.0847 5.15952ZM31.0963 22.6066C28.0408 23.6274 24.8333 24.1502 21.5996 24.1502C18.3659 24.1502 15.1585 23.6274 12.103 22.6066C12.4341 23.0414 12.7996 23.4587 13.1996 23.8547C17.8388 28.4473 25.3604 28.4473 29.9996 23.8547C30.3997 23.4587 30.7653 23.0414 31.0963 22.6066ZM13.415 7.01569C14.2028 7.53094 15.0405 7.97184 15.917 8.3313C17.7186 9.07003 19.6495 9.45026 21.5996 9.45026C23.5497 9.45026 25.4806 9.07003 27.2822 8.3313C28.1587 7.97184 28.9964 7.53092 29.7844 7.01567C25.203 2.70033 17.9962 2.70034 13.415 7.01569Z" fill="#3B4158"/>
</svg>
