<svg width="51" height="51" viewBox="0 0 51 51" fill="none" xmlns="http://www.w3.org/2000/svg">
<g clip-path="url(#clip0_49_3616)">
<path fill-rule="evenodd" clip-rule="evenodd" d="M14.9004 4.70003C20.6993 4.70003 25.4004 9.40103 25.4004 15.2V4.70003H35.9004C41.6993 4.70003 46.4004 9.40103 46.4004 15.2C46.4004 20.999 41.6993 25.7 35.9004 25.7C41.6993 25.7 46.4004 30.4011 46.4004 36.2C46.4004 39.0794 45.2413 41.6882 43.3643 43.5851L43.325 43.6247L43.2902 43.6593C41.3928 45.539 38.7822 46.7 35.9004 46.7C33.0382 46.7 30.4434 45.5548 28.5493 43.6975C28.5248 43.6734 28.5002 43.649 28.4757 43.6247C28.4527 43.6017 28.4298 43.5786 28.4071 43.5554C26.5474 41.661 25.4004 39.0644 25.4004 36.2C25.4004 41.999 20.6993 46.7 14.9004 46.7C9.1014 46.7 4.40039 41.999 4.40039 36.2V25.7H14.9004C9.1014 25.7 4.40039 20.999 4.40039 15.2C4.40039 9.40103 9.1014 4.70003 14.9004 4.70003ZM23.3004 15.2C23.3004 19.8392 19.5396 23.6 14.9004 23.6V6.80003C19.5396 6.80003 23.3004 10.5608 23.3004 15.2ZM44.3004 36.2C44.3004 31.5608 40.5396 27.8 35.9004 27.8C31.2612 27.8 27.5004 31.5608 27.5004 36.2H44.3004ZM6.50039 27.8V36.2C6.50039 40.8392 10.2612 44.6 14.9004 44.6C19.5396 44.6 23.3004 40.8392 23.3004 36.2V27.8H6.50039ZM27.5004 23.6V6.80003H35.9004C40.5396 6.80003 44.3004 10.5608 44.3004 15.2C44.3004 19.8392 40.5396 23.6 35.9004 23.6H27.5004Z" fill="#263238"/>
</g>
<defs>
<clipPath id="clip0_49_3616">
<rect width="42" height="42" fill="white" transform="translate(4.40039 4.70003)"/>
</clipPath>
</defs>
</svg>
