<svg width="55" height="22" viewBox="0 0 55 22" fill="none" xmlns="http://www.w3.org/2000/svg">
<g clip-path="url(#clip0_49_3647)">
<path d="M13.0609 0.0391693C10.9286 0.0391693 8.8837 0.886204 7.37597 2.39394L2.45536 7.31455C0.947621 8.82228 0.100586 10.8672 0.100586 12.9995C0.100586 17.4397 3.70008 21.0392 8.1403 21.0392C10.2726 21.0392 12.3175 20.1921 13.8252 18.6844L17.2288 15.2808C17.2288 15.2807 17.2289 15.2808 17.2288 15.2808L27.1458 5.36379C27.8659 4.64371 28.8425 4.23917 29.8609 4.23917C31.5658 4.23917 33.0112 5.35036 33.5124 6.88802L36.6421 3.75824C35.2143 1.52201 32.7108 0.0391693 29.8609 0.0391693C27.7286 0.0391693 25.6837 0.886204 24.176 2.39394L10.8554 15.7145C10.1353 16.4346 9.15866 16.8392 8.1403 16.8392C6.01967 16.8392 4.30059 15.1201 4.30059 12.9995C4.30059 11.9811 4.70512 11.0045 5.42521 10.2844L10.3458 5.36379C11.0659 4.64371 12.0425 4.23917 13.0609 4.23917C14.7659 4.23917 16.2112 5.35041 16.7124 6.88812L19.8422 3.75832C18.4144 1.52205 15.9109 0.0391693 13.0609 0.0391693Z" fill="#394149"/>
<path d="M27.6562 15.7145C26.9361 16.4346 25.9595 16.8392 24.9411 16.8392C23.2364 16.8392 21.7911 15.7283 21.2899 14.1908L18.1602 17.3205C19.588 19.5565 22.0914 21.0392 24.9411 21.0392C27.0734 21.0392 29.1183 20.1921 30.626 18.6844L43.9466 5.36377C44.6667 4.64369 45.6433 4.23915 46.6617 4.23915C48.7824 4.23915 50.5014 5.95824 50.5014 8.07886C50.5014 9.09722 50.0969 10.0739 49.3768 10.794L44.4562 15.7145C43.7361 16.4346 42.7595 16.8392 41.7411 16.8392C40.0363 16.8392 38.5909 15.728 38.0897 14.1905L34.96 17.3203C36.3878 19.5564 38.8913 21.0392 41.7411 21.0392C43.8734 21.0392 45.9183 20.1921 47.426 18.6844L52.3466 13.7638C53.8543 12.256 54.7014 10.2111 54.7014 8.07886C54.7014 3.63865 51.1019 0.0391541 46.6617 0.0391541C44.5294 0.0391541 42.4845 0.886189 40.9768 2.39393L27.6562 15.7145Z" fill="#394149"/>
</g>
<defs>
<clipPath id="clip0_49_3647">
<rect width="54.6" height="21" fill="white" transform="translate(0.100586 0.0391693)"/>
</clipPath>
</defs>
</svg>
