<svg width="52" height="51" viewBox="0 0 52 51" fill="none" xmlns="http://www.w3.org/2000/svg">
<g clip-path="url(#clip0_49_3626)">
<path d="M48.0475 14.5821C48.0475 14.6176 48.0475 14.662 48.0382 14.6886C47.992 15.0348 47.992 15.3809 48.0197 15.736C48.0382 15.8248 48.0567 15.9135 48.1307 15.9845C48.2509 16.1177 48.4358 16.091 48.5099 15.9313C48.5469 15.8514 48.5469 15.7715 48.5283 15.6916C48.4358 15.3543 48.4174 14.9993 48.4081 14.6531C48.4081 14.6354 48.4081 14.6087 48.4081 14.5821C48.5099 14.5732 48.6024 14.5643 48.6856 14.5643C48.7503 14.5555 48.8058 14.5466 48.8521 14.52C48.9907 14.449 48.9907 14.2981 48.8428 14.2271C48.7873 14.2004 48.7133 14.1915 48.6486 14.1915C48.4174 14.2004 48.1862 14.2004 47.955 14.2004C47.8718 14.2004 47.7885 14.2093 47.7052 14.2182C47.659 14.2271 47.6035 14.2271 47.5666 14.2537C47.5018 14.2803 47.4648 14.3247 47.4648 14.3868C47.4741 14.449 47.5018 14.4845 47.5666 14.5111C47.6035 14.5377 47.6498 14.5466 47.696 14.5466C47.807 14.5555 47.9273 14.5732 48.0475 14.5821ZM50.5907 14.9904C50.5907 14.9993 50.5999 15.0082 50.5999 15.0082C50.6369 15.2478 50.6739 15.4786 50.7016 15.7094C50.7109 15.7892 50.7202 15.8603 50.7757 15.9224C50.8959 16.0733 51.0809 16.0555 51.164 15.8958C51.2011 15.8159 51.2103 15.736 51.1918 15.6472C51.1363 15.3809 51.1086 15.1147 51.0531 14.8573C51.0161 14.6975 50.9699 14.5466 50.9236 14.4046C50.8959 14.3158 50.8311 14.2537 50.7202 14.2448C50.6092 14.2271 50.526 14.2803 50.4797 14.3602C50.4242 14.4312 50.378 14.5022 50.341 14.5821C50.2762 14.7241 50.2208 14.8661 50.1468 14.9993C50.1375 15.0348 50.1283 15.0614 50.1098 15.088C50.1006 15.0703 50.0913 15.0614 50.0913 15.0614C49.971 14.8395 49.8601 14.6176 49.7399 14.4046C49.7213 14.3868 49.7121 14.3691 49.7029 14.3513C49.6474 14.2714 49.5827 14.2271 49.4809 14.2271C49.3884 14.2359 49.3144 14.2892 49.2682 14.3691C49.2497 14.4046 49.2497 14.4312 49.2405 14.4667C49.2034 14.7507 49.1572 15.0348 49.1203 15.3188C49.1017 15.4786 49.0925 15.6384 49.0925 15.7981C49.0832 15.8336 49.0925 15.878 49.1109 15.9135C49.1295 15.9845 49.185 16.0289 49.2589 16.0378C49.3514 16.0467 49.4161 16.02 49.4439 15.949C49.4716 15.8958 49.4809 15.8514 49.4902 15.807C49.5272 15.6472 49.5549 15.4963 49.5827 15.3454C49.6011 15.2567 49.6104 15.1857 49.6381 15.088C49.6566 15.1235 49.6751 15.1502 49.6936 15.1768C49.7768 15.2833 49.8601 15.3898 49.9618 15.4786C50.0635 15.5496 50.1468 15.5407 50.23 15.4608C50.2485 15.4431 50.2578 15.4342 50.2762 15.4165C50.3595 15.2922 50.4612 15.1679 50.5444 15.0437C50.563 15.0259 50.5722 15.0082 50.5907 14.9904Z" fill="#3A3B7B"/>
<path d="M29.281 14.7565C29.2167 14.9252 29.2044 15.0467 29.2341 15.1477C29.2669 15.2851 29.352 15.33 29.4674 15.2951C30.5537 15.0373 32.9357 15.7691 33.8176 15.973C34.0255 16.0158 34.1947 15.7582 34.0528 15.5271C33.8457 15.3034 31.4648 14.3455 30.5563 14.2932C30.2002 14.2739 29.5636 14.1863 29.281 14.7565Z" fill="#3A3B7B"/>
<path d="M38.5907 11.6557C38.7065 11.7198 38.7712 11.781 38.8031 11.8493C38.8507 11.939 38.8256 12.001 38.7457 12.0327C38.0276 12.369 37.0721 13.8171 36.6864 14.3165C36.593 14.4314 36.3773 14.3646 36.3447 14.1757C36.3514 13.9621 37.1984 12.3906 37.6711 11.9626C37.8569 11.7955 38.1638 11.4676 38.5907 11.6557Z" fill="#3A3B7B"/>
<path d="M32.8729 10.9428C33.012 10.8422 33.1565 10.807 33.2303 10.8724C34.3137 11.7616 34.8882 13.1698 35.2439 14.459C35.2573 14.489 35.2582 14.5321 35.2475 14.5771C35.243 14.6155 35.2138 14.6561 35.1673 14.6875C35.1177 14.7222 35.0749 14.7327 35.0549 14.7029C34.58 14.083 31.8681 11.6713 32.8729 10.9428Z" fill="#3A3B7B"/>
<path d="M9.93059 26.3601C10.1902 26.1746 10.4725 26.0201 10.7712 25.9002C11.0838 25.8145 11.4169 25.8287 11.7202 25.9408C12.0235 26.0529 12.2806 26.2567 12.4525 26.5215C12.6063 26.7856 12.6664 27.0905 12.624 27.3903C12.5815 27.69 12.4388 27.9684 12.2171 28.1836C12.0453 28.358 11.8502 28.5099 11.6371 28.6354C10.6872 29.2244 9.72882 29.7811 8.77049 30.3701C8.5744 30.5175 8.36637 30.6497 8.14841 30.7654C7.81687 30.9241 7.43797 30.9666 7.07723 30.8856C6.7165 30.8046 6.39661 30.6051 6.17288 30.3217C6.00564 30.121 5.86449 29.9016 5.75256 29.6681C4.84466 27.8366 3.90314 26.0132 3.02886 24.1494C2.62535 23.3426 2.29749 22.4147 1.97805 21.5191C1.83984 21.2589 1.81285 20.9572 1.90283 20.6782C1.99281 20.3992 2.19265 20.1648 2.45985 20.025C2.72705 19.8852 3.04052 19.8511 3.3336 19.9297C3.62669 20.0083 3.87626 20.1936 4.02923 20.446C4.49943 21.0457 4.91565 21.6828 5.27339 22.3502C6.18129 23.9638 7.04716 25.5775 7.92143 27.1427C7.97234 27.2292 8.02847 27.3127 8.08956 27.3928C8.7476 27.1273 9.36652 26.7801 9.93059 26.3601Z" fill="#3A3B7B"/>
<path d="M19.3182 25.7972C17.2419 28.1289 13.7615 27.5399 12.013 24.5385C10.7688 22.4085 10.5503 18.8906 13.2572 16.6719C13.8352 16.2073 14.5264 15.8909 15.2663 15.7521C16.1735 15.6272 17.0986 15.7808 17.9093 16.1909C18.7201 16.601 19.375 17.2466 19.7806 18.0354C21.2601 20.6173 21.05 23.9092 19.3182 25.7972ZM18.4776 20.3591C18.257 19.7246 17.8145 19.183 17.225 18.8261C16.8915 18.5979 16.4862 18.487 16.0774 18.512C15.6686 18.5369 15.2812 18.6963 14.9805 18.9632C13.7784 19.988 13.5261 22.4165 14.4004 23.8608C14.5119 24.0963 14.6755 24.3056 14.88 24.474C15.0846 24.6424 15.325 24.766 15.5844 24.8359C15.8438 24.9058 16.116 24.9205 16.382 24.8789C16.648 24.8373 16.9013 24.7404 17.1242 24.595C17.7758 24.1101 18.2539 23.4424 18.4919 22.6847C18.73 21.927 18.7161 21.117 18.4524 20.3672L18.4776 20.3591Z" fill="#3A3B7B"/>
<path d="M27.7921 21.3757C27.5796 21.4196 27.3599 21.4222 27.1463 21.3834C26.9326 21.3445 26.7292 21.2652 26.548 21.1498C26.3894 21.0627 26.253 20.9431 26.1483 20.7994C26.0438 20.6556 25.9737 20.4915 25.9432 20.3186C25.9126 20.1458 25.9224 19.9686 25.9717 19.7998C26.021 19.631 26.1088 19.4748 26.2286 19.3425C26.4372 19.0764 26.7335 18.886 27.0692 18.8019C27.9457 18.5577 28.8481 18.4089 29.7593 18.3582C29.9595 18.3358 30.1623 18.3521 30.3558 18.406C30.5494 18.46 30.7298 18.5504 30.8864 18.6722C31.043 18.7939 31.1727 18.9445 31.2679 19.1151C31.363 19.2856 31.4217 19.4726 31.4406 19.6652C31.7032 20.6113 31.732 21.6032 31.5246 22.5618C30.7681 25.66 28.162 26.725 25.2366 25.7326C24.4154 25.4673 23.6954 24.9729 23.1686 24.3126C22.466 23.5174 21.9678 22.5751 21.7142 21.5613C21.5088 20.6585 21.5313 19.7218 21.7799 18.8291C22.0285 17.9364 22.496 17.1138 23.1433 16.4298C23.7577 15.6864 24.555 15.1014 25.4636 14.7274C26.0376 14.4237 26.7094 14.3373 27.3466 14.4853C27.4911 14.5237 27.6223 14.5985 27.7266 14.702C27.8309 14.8055 27.9044 14.9338 27.9396 15.0738C27.9748 15.2137 27.9703 15.3601 27.9266 15.4978C27.8829 15.6356 27.8017 15.7595 27.6913 15.857C27.4813 16.0393 27.2533 16.2015 27.0103 16.3411C26.263 16.7979 25.6126 17.3865 25.0936 18.0757C24.7535 18.5218 24.5192 19.0339 24.4074 19.5762C24.2955 20.1184 24.3088 20.6776 24.4464 21.2144C24.637 21.9463 25.0601 22.6032 25.6569 23.0942C27.5063 24.708 29.9106 23.1507 29.4902 20.9481C28.8766 21.0933 28.3386 21.2466 27.7921 21.3757Z" fill="#3A3B7B"/>
<path d="M39.0908 25.9262C36.3587 27.54 33.2483 25.9262 32.5673 22.5376C32.0714 20.1171 33.0129 16.7283 36.3083 15.4374C37.0094 15.1687 37.7699 15.0743 38.5192 15.1631C39.4194 15.3213 40.2452 15.7466 40.8801 16.3792C41.5151 17.0118 41.9272 17.8196 42.0583 18.689C42.6131 21.5693 41.3521 24.6434 39.0908 25.9262ZM40.0408 20.4962C40.0399 19.826 39.7929 19.1774 39.343 18.6647C39.1026 18.3477 38.7549 18.1205 38.3594 18.0218C37.9638 17.9233 37.545 17.9594 37.1741 18.1242C35.6946 18.7373 34.6522 20.9642 35.0305 22.6021C35.0594 22.8592 35.1464 23.1071 35.2855 23.3284C35.4246 23.5498 35.6124 23.7394 35.8358 23.8839C36.0591 24.0283 36.3127 24.1242 36.5787 24.1648C36.8448 24.2054 37.1168 24.1898 37.3759 24.119C38.1579 23.8567 38.8351 23.3667 39.3128 22.7172C39.7906 22.0677 40.0451 21.2913 40.0408 20.4962Z" fill="#3A3B7B"/>
<path d="M44.8208 26.604C44.7795 26.8993 44.6178 27.1668 44.3711 27.3476C44.1243 27.5284 43.8128 27.6077 43.5052 27.5682C43.1975 27.5286 42.9188 27.3733 42.7304 27.1365C42.542 26.8997 42.4594 26.6008 42.5006 26.3055C42.5419 26.0102 42.7037 25.7427 42.9503 25.5619C43.1971 25.381 43.5086 25.3017 43.8162 25.3413C44.1239 25.3809 44.4026 25.5361 44.591 25.7729C44.7794 26.0097 44.8621 26.3087 44.8208 26.604ZM44.0894 15.7198C44.2493 15.4854 44.4839 15.3069 44.7581 15.211C45.0323 15.115 45.3315 15.1067 45.611 15.1873C45.8952 15.2555 46.1462 15.4154 46.3223 15.6401C46.4982 15.8648 46.5884 16.1408 46.5778 16.4217C46.5407 16.8724 46.4705 17.3199 46.3676 17.761C46.0902 19.2537 45.8212 20.7463 45.527 22.2229C45.3925 22.8119 45.2159 23.3767 45.0225 23.9737C44.9553 24.1603 44.8429 24.329 44.6947 24.4659C44.6026 24.5688 44.4849 24.6478 44.3525 24.6955C44.2201 24.7432 44.0773 24.7581 43.9374 24.7388C43.7975 24.7195 43.6648 24.6666 43.5518 24.5851C43.4388 24.5035 43.349 24.3959 43.2909 24.2722C43.1909 24.0504 43.1366 23.8119 43.1311 23.5703C43.1311 22.5698 43.1311 21.5613 43.1984 20.5527C43.3126 19.1134 43.5374 17.6841 43.8709 16.2765C43.9101 16.0879 43.9841 15.9076 44.0894 15.744V15.7198Z" fill="#3A3B7B"/>
<path fill-rule="evenodd" clip-rule="evenodd" d="M6.37972 33.0876C6.28046 33.3002 6.25324 33.5373 6.30174 33.7655C6.33401 34.0663 6.40489 34.3621 6.51275 34.6463C6.64742 34.9942 6.79811 35.3383 6.98392 35.7624C7.02665 35.86 7.07131 35.9619 7.11804 36.0691C7.36861 36.6436 7.68301 37.3779 8.10238 38.4405C8.22108 38.7424 8.32648 39.0467 8.43263 39.3532C8.47551 39.477 8.51854 39.6012 8.56259 39.7257C8.72048 40.1683 8.99216 40.566 9.35227 40.8811C9.50519 41.0543 9.70801 41.1806 9.93545 41.2437C10.1673 41.308 10.4139 41.304 10.6433 41.232C10.8727 41.1599 11.0742 41.0233 11.2216 40.8399C11.3662 40.66 11.4521 40.4433 11.4688 40.2168C11.5626 39.7757 11.5306 39.3183 11.376 38.8931C11.1308 38.187 10.8514 37.4799 10.5292 36.7882L10.5277 36.7852C9.9977 35.7031 9.45894 34.6285 8.89469 33.5535L8.89046 33.5459C8.72528 33.2659 8.51061 33.0155 8.25611 32.8061C8.09089 32.6191 7.86298 32.493 7.6113 32.4496C7.35425 32.4052 7.08914 32.4499 6.8633 32.5758C6.64965 32.6929 6.4803 32.8721 6.37972 33.0876Z" fill="#3A3B7B"/>
<path fill-rule="evenodd" clip-rule="evenodd" d="M14.4748 30.4231C13.6437 30.2165 12.7758 30.1864 11.9315 30.3349C11.2776 30.3967 10.6344 30.5415 10.1878 30.8283C9.96061 30.9742 9.77696 31.1616 9.67481 31.3998C9.57209 31.6394 9.55898 31.9133 9.64315 32.2185C9.79684 32.7775 9.99643 33.321 10.1953 33.8628L10.2275 33.9506L10.2283 33.9525C10.8271 35.5265 11.4317 37.0952 12.0417 38.6584C12.1128 38.9048 12.2134 39.1424 12.3415 39.3666L12.3439 39.3708C12.513 39.6492 12.7299 39.8983 12.9855 40.1075C13.1133 40.2225 13.2714 40.3021 13.4427 40.3377C13.6158 40.3735 13.7958 40.3631 13.9631 40.3075C14.1305 40.2519 14.2787 40.1533 14.3916 40.0224C14.5027 39.8936 14.5755 39.7384 14.6022 39.5733C14.7125 39.1247 14.6771 38.6545 14.5009 38.2257C14.4459 38.0814 14.4027 37.9339 14.3573 37.7787C14.3421 37.7269 14.3268 37.6743 14.3105 37.6206C15.7069 37.0968 17.1927 36.3923 17.7152 34.7536C17.9198 34.1873 17.9368 33.574 17.764 32.998C17.591 32.4213 17.236 31.9102 16.748 31.5349C16.0838 31.0097 15.308 30.6302 14.4748 30.4231ZM12.1712 32.4331C12.1987 32.4255 12.2264 32.4185 12.2542 32.4119C13.1633 32.2747 14.0934 32.4575 14.8733 32.9264C15.217 33.1558 15.3577 33.4107 15.3819 33.656C15.4069 33.9085 15.3112 34.1821 15.119 34.4452C14.7559 34.9421 14.0932 35.3398 13.4946 35.4139C13.0582 34.4493 12.615 33.4457 12.1712 32.4331Z" fill="#3A3B7B"/>
<path d="M20.0146 28.6575C21.0043 28.2188 22.2302 28.143 23.1895 28.4515C23.4311 28.519 23.6407 28.6651 23.7825 28.8647C23.9234 29.0632 23.9884 29.3023 23.9666 29.5413C23.9652 29.6964 23.9255 29.8491 23.8509 29.9868C23.7749 30.127 23.6648 30.2476 23.53 30.3384C23.3952 30.4291 23.2397 30.4875 23.0764 30.5083C22.9132 30.5292 22.7471 30.512 22.5923 30.4582L22.5805 30.4542L22.5694 30.4486C22.4902 30.4088 22.406 30.3788 22.3189 30.3593L22.3134 30.3581C21.6386 30.1861 21.0021 30.4711 20.7695 30.8214C20.6586 30.9884 20.6449 31.1569 20.7373 31.3103C20.8362 31.4745 21.0788 31.6588 21.5696 31.7902C21.7047 31.8257 21.843 31.8601 21.9834 31.8949C22.3716 31.9914 22.775 32.0916 23.1651 32.2305L23.1665 32.2311C24.9661 32.8882 25.6362 34.2493 25.4068 35.5294C25.1799 36.7954 24.0783 37.9475 22.4218 38.2193C21.819 38.3475 21.1917 38.3225 20.602 38.1468C20.0108 37.9705 19.4778 37.6489 19.0562 37.2138L19.0452 37.2024C18.9121 37.0385 18.8225 36.8459 18.7829 36.6415C18.7463 36.4571 18.7656 36.2665 18.8382 36.0922C18.9104 35.9189 19.0325 35.7689 19.1901 35.6597C19.3565 35.5358 19.5572 35.4615 19.7672 35.446C19.9765 35.4305 20.1859 35.4742 20.3697 35.5715C20.5533 35.6566 20.7241 35.7652 20.8773 35.8943L20.8802 35.8967C21.1514 36.1347 21.4794 36.1967 21.794 36.1392C22.1131 36.081 22.4133 35.8997 22.6063 35.6592C22.798 35.4203 22.875 35.1364 22.7837 34.8608C22.6917 34.5833 22.4153 34.2722 21.8079 34.0122C21.6492 33.9475 21.4846 33.8954 21.3133 33.8446C21.2671 33.8309 21.2202 33.8172 21.1727 33.8034C21.046 33.7665 20.9158 33.7285 20.788 33.6866C20.7 33.6579 20.6128 33.6306 20.5263 33.6035C20.2901 33.5297 20.0597 33.4577 19.8381 33.3612C19.3557 33.2035 18.9389 32.9008 18.6497 32.4978C18.3594 32.0933 18.2134 31.6095 18.2332 31.1187C18.2348 29.9226 19.0197 29.0986 20.0146 28.6575Z" fill="#3A3B7B"/>
<path d="M32.5621 28.5301C32.3702 28.4401 32.1579 28.3974 31.9446 28.4058C31.7312 28.4142 31.5234 28.4735 31.3399 28.5783C31.1575 28.6824 31.0048 28.8281 30.8954 29.0026C30.795 29.1495 30.7256 29.3138 30.691 29.4863C30.6564 29.6587 30.6572 29.8359 30.6934 30.0079C30.7291 30.2289 30.7687 30.4438 30.8079 30.6558C30.8727 31.0066 30.9357 31.3495 30.9773 31.6991L30.9788 31.708C31.0735 32.2563 31.1231 32.8108 31.1275 33.3666L31.1279 33.3745C31.1603 33.9746 30.9473 34.563 30.5345 35.0149L30.5279 35.023C30.3936 35.1882 30.214 35.3143 30.0092 35.3871C29.8045 35.46 29.5827 35.4767 29.3686 35.4355C29.1545 35.3943 28.9566 35.2967 28.797 35.1536C28.6374 35.0106 28.5223 34.8272 28.4648 34.625C28.3421 34.199 28.2711 33.7607 28.2531 33.319L28.4626 30.1174C28.4657 30.0756 28.4692 30.0327 28.4728 29.9894C28.4808 29.8921 28.489 29.7931 28.4924 29.7007C28.4973 29.5648 28.4931 29.425 28.4601 29.2927C28.4263 29.1575 28.3621 29.0288 28.2482 28.9193C28.1354 28.8108 27.9831 28.7308 27.7915 28.6764C27.445 28.5801 27.152 28.5831 26.9078 28.6826C26.6635 28.782 26.4962 28.9667 26.3777 29.18C26.2602 29.3915 26.1847 29.6418 26.1276 29.8926C26.0852 30.0787 26.0512 30.2741 26.0188 30.46C26.0076 30.5241 25.9967 30.587 25.9856 30.6481L25.9853 30.6499C25.8122 31.6697 25.7606 32.7052 25.8317 33.7362C25.845 34.2933 25.966 34.8433 26.1888 35.358C26.4401 36.0221 26.8953 36.5974 27.4944 37.0082C28.0947 37.4197 28.811 37.6465 29.5486 37.6585C30.2862 37.6705 31.0101 37.4671 31.6246 37.0753C32.2381 36.6841 32.7136 36.1234 32.9881 35.4674C33.3721 34.6318 33.5524 33.723 33.5152 32.8103C33.4927 32.144 33.4549 31.4726 33.4173 30.8045C33.3988 30.4769 33.3804 30.1499 33.3639 29.8249C33.3556 29.499 33.2436 29.1834 33.043 28.9203C32.9189 28.754 32.7536 28.6199 32.5621 28.5301Z" fill="#3A3B7B"/>
<path d="M39.3547 33.5502C39.3353 33.574 39.3148 33.5985 39.2933 33.6241C39.1372 32.7598 38.9926 31.8959 38.8477 31.0306C38.7957 30.7202 38.7435 30.4084 38.691 30.0975L38.6851 30.0629L38.6659 30.0329C38.6297 29.9765 38.6261 29.9212 38.6261 29.8033V29.7897L38.6239 29.7762C38.5847 29.5326 38.47 29.306 38.2946 29.1259C38.1198 28.9463 37.8927 28.8213 37.6429 28.7671C37.3936 28.7081 37.1315 28.7211 36.8898 28.8045C36.6487 28.8878 36.4385 29.0374 36.2855 29.2346C36.1583 29.386 36.0541 29.5539 35.9759 29.7332C35.7986 30.1197 35.6198 30.5071 35.4404 30.8955L35.4373 30.9023C34.9896 31.872 34.5388 32.8483 34.1011 33.8322L34.0998 33.8354C33.8311 34.4734 33.6093 35.1457 33.3883 35.8158C33.3442 35.9496 33.3 36.0833 33.2556 36.2167C33.1758 36.4282 33.1409 36.6528 33.1528 36.8774C33.1383 37.0784 33.1884 37.279 33.2966 37.4519C33.4069 37.6284 33.572 37.7672 33.7688 37.8489C33.9773 37.9367 34.2105 37.9553 34.4314 37.9019C34.6517 37.8485 34.8475 37.7264 34.9877 37.5548C35.1668 37.3434 35.3208 37.1128 35.4464 36.8685C35.8172 36.1406 36.1715 35.4039 36.5242 34.6703C36.6607 34.3866 36.7933 34.1324 36.9442 33.8557C36.9546 33.8898 36.9651 33.9231 36.9761 33.9565C37.1342 34.6246 37.4011 35.2646 37.7669 35.853C37.8362 35.9776 37.9326 36.0866 38.0496 36.1723C38.1681 36.2591 38.3048 36.32 38.4502 36.3509C38.5957 36.3819 38.7464 36.382 38.8919 36.3513C39.0372 36.3208 39.1743 36.2598 39.2928 36.1734L39.5274 36.0049L41.3479 34.5331L41.2403 35.1916C41.0925 36.0967 40.9458 36.9943 40.79 37.8921C40.6881 38.29 40.6882 38.7057 40.7905 39.1035C40.8347 39.3274 40.9475 39.5334 41.1145 39.6955C41.2828 39.8589 41.4984 39.9699 41.7333 40.0142C41.9682 40.0584 42.2116 40.0339 42.4318 39.9438C42.6488 39.855 42.8333 39.7065 42.9624 39.5172C43.2625 39.1597 43.4494 38.727 43.5007 38.2705C43.578 37.6258 43.6652 36.9723 43.7526 36.319C43.8532 35.5659 43.9538 34.8131 44.0388 34.0748L44.039 34.0725C44.1208 33.2643 44.1604 32.4527 44.1576 31.6407C44.1755 31.3841 44.109 31.1284 43.9671 30.9099C43.8248 30.6907 43.614 30.5202 43.3648 30.4227C43.1057 30.3097 42.8156 30.2794 42.5372 30.3366C42.2606 30.3933 42.0103 30.5333 41.8224 30.736C41.4867 31.034 41.1717 31.353 40.8794 31.6908L40.8775 31.6931C40.5584 32.0746 40.2416 32.4636 39.9268 32.8501C39.7354 33.085 39.5446 33.3194 39.3547 33.5502Z" fill="#3A3B7B"/>
</g>
<defs>
<clipPath id="clip0_49_3626">
<rect width="49.35" height="30.45" fill="white" transform="translate(1.85059 10.8392)"/>
</clipPath>
</defs>
</svg>
