<svg width="35" height="33" viewBox="0 0 35 33" fill="none" xmlns="http://www.w3.org/2000/svg">
<g clip-path="url(#clip0_49_3954)">
<path d="M11.8862 13.6322C13.0347 12.5527 13.0347 10.7964 11.8862 9.71687L7.84688 5.92044C7.22901 5.33966 6.37248 5.04539 5.49774 5.11307C4.6397 5.17945 3.86362 5.59055 3.36855 6.24085C3.26578 6.37584 3.16654 6.51279 3.06934 6.65085L11.1917 14.2849L11.8862 13.6322Z" fill="#EAF0EE"/>
<path d="M28.5539 25.3824L24.5146 21.5859C23.3662 20.5066 21.4973 20.5064 20.3488 21.5859L19.6543 22.2386L27.777 29.873C27.9239 29.7816 28.0694 29.688 28.2129 29.5914C28.9048 29.1261 29.3422 28.3967 29.4129 27.5903C29.485 26.768 29.1718 25.9632 28.5539 25.3824Z" fill="#EAF0EE"/>
<path d="M16.8767 23.7016C16.0898 23.7016 15.3502 23.4136 14.7938 22.8907L10.4971 18.8523C9.94073 18.3295 9.63425 17.6342 9.63425 16.8947C9.63425 16.4746 9.73342 16.0689 9.92077 15.7009L2.06552 8.31787C0.960571 10.4984 0.47159 12.9415 0.673336 15.3937C0.945188 18.6981 2.46136 21.8022 4.94266 24.1343L9.17407 28.1112C11.6552 30.4432 14.958 31.8682 18.4738 32.1238C18.858 32.1517 19.2418 32.1656 19.6248 32.1656C21.8422 32.1656 24.0238 31.701 26.0022 30.8154L18.1468 23.4323C17.7553 23.6085 17.3237 23.7016 16.8767 23.7016Z" fill="#EAF0EE"/>
<path d="M20.3979 0.666016C19.8556 0.666016 19.416 1.07921 19.416 1.58887C19.416 2.09853 19.8556 2.51172 20.3979 2.51172C26.8949 2.51172 32.1806 7.47961 32.1806 13.5859C32.1806 14.0956 32.6202 14.5088 33.1625 14.5088C33.7047 14.5088 34.1444 14.0956 34.1444 13.5859C34.1444 6.46189 27.9777 0.666016 20.3979 0.666016Z" fill="#EAF0EE"/>
<path d="M20.3978 13.5851C20.3978 13.5851 20.3979 13.5854 20.3979 13.5859C20.3979 14.0956 20.8375 14.5088 21.3798 14.5088C21.9221 14.5088 22.3617 14.0956 22.3617 13.5859C22.3617 12.5682 21.4807 11.7402 20.3979 11.7402C19.8556 11.7402 19.416 12.153 19.416 12.6627C19.416 13.1723 19.8556 13.5851 20.3978 13.5851Z" fill="#EAF0EE"/>
<path d="M20.3979 9.89453C22.5636 9.89453 24.3255 11.5505 24.3255 13.5859C24.3255 14.0956 24.7651 14.5088 25.3074 14.5088C25.8496 14.5088 26.2892 14.0956 26.2892 13.5859C26.2892 10.5328 23.6464 8.04883 20.3979 8.04883C19.8556 8.04883 19.416 8.46202 19.416 8.97168C19.416 9.48134 19.8556 9.89453 20.3979 9.89453Z" fill="#EAF0EE"/>
<path d="M20.3979 4.35742C19.8556 4.35742 19.416 4.77061 19.416 5.28027C19.416 5.78993 19.8556 6.20312 20.3979 6.20312C24.7292 6.20312 28.253 9.51505 28.253 13.5859C28.253 14.0956 28.6926 14.5088 29.2349 14.5088C29.7772 14.5088 30.2168 14.0956 30.2168 13.5859C30.2168 8.49733 25.812 4.35742 20.3979 4.35742Z" fill="#EAF0EE"/>
</g>
<defs>
<clipPath id="clip0_49_3954">
<rect width="33.5152" height="31.5" fill="white" transform="translate(0.628906 0.666016)"/>
</clipPath>
</defs>
</svg>
