<svg width="111" height="112" viewBox="0 0 111 112" fill="none" xmlns="http://www.w3.org/2000/svg">
<g filter="url(#filter0_d_49_3696)">
<rect x="24" y="8.94983" width="63" height="63" fill="white"/>
</g>
<g clip-path="url(#clip0_49_3696)">
<path d="M46.05 37.2999C46.3285 37.2999 46.5955 37.4105 46.7925 37.6074C46.9894 37.8043 47.1 38.0714 47.1 38.3499V40.4499C47.1 42.6777 47.985 44.8143 49.5603 46.3896C51.1356 47.9649 53.2722 48.8499 55.5 48.8499C57.7278 48.8499 59.8644 47.9649 61.4397 46.3896C63.015 44.8143 63.9 42.6777 63.9 40.4499V38.3499C63.9 38.0714 64.0106 37.8043 64.2075 37.6074C64.4044 37.4105 64.6715 37.2999 64.95 37.2999C65.2285 37.2999 65.4955 37.4105 65.6925 37.6074C65.8894 37.8043 66 38.0714 66 38.3499V40.4499C66 43.0529 65.0332 45.5631 63.2871 47.4936C61.5409 49.424 59.14 50.6371 56.55 50.8974V55.1499H62.85C63.1285 55.1499 63.3955 55.2605 63.5925 55.4574C63.7894 55.6543 63.9 55.9214 63.9 56.1999C63.9 56.4783 63.7894 56.7454 63.5925 56.9423C63.3955 57.1392 63.1285 57.2499 62.85 57.2499H48.15C47.8715 57.2499 47.6045 57.1392 47.4075 56.9423C47.2106 56.7454 47.1 56.4783 47.1 56.1999C47.1 55.9214 47.2106 55.6543 47.4075 55.4574C47.6045 55.2605 47.8715 55.1499 48.15 55.1499H54.45V50.8974C51.86 50.6371 49.4591 49.424 47.7129 47.4936C45.9668 45.5631 45 43.0529 45 40.4499V38.3499C45 38.0714 45.1106 37.8043 45.3075 37.6074C45.5045 37.4105 45.7715 37.2999 46.05 37.2999Z" fill="#285A50"/>
<path d="M59.7002 40.4498C59.7002 41.5637 59.2577 42.632 58.47 43.4197C57.6824 44.2073 56.6141 44.6498 55.5002 44.6498C54.3863 44.6498 53.318 44.2073 52.5303 43.4197C51.7427 42.632 51.3002 41.5637 51.3002 40.4498V29.9498C51.3002 28.8359 51.7427 27.7676 52.5303 26.98C53.318 26.1923 54.3863 25.7498 55.5002 25.7498C56.6141 25.7498 57.6824 26.1923 58.47 26.98C59.2577 27.7676 59.7002 28.8359 59.7002 29.9498V40.4498ZM55.5002 23.6498C53.8293 23.6498 52.2269 24.3136 51.0454 25.4951C49.8639 26.6765 49.2002 28.279 49.2002 29.9498V40.4498C49.2002 42.1207 49.8639 43.7231 51.0454 44.9046C52.2269 46.0861 53.8293 46.7498 55.5002 46.7498C57.1711 46.7498 58.7735 46.0861 59.955 44.9046C61.1364 43.7231 61.8002 42.1207 61.8002 40.4498V29.9498C61.8002 28.279 61.1364 26.6765 59.955 25.4951C58.7735 24.3136 57.1711 23.6498 55.5002 23.6498Z" fill="#285A50"/>
</g>
<defs>
<filter id="filter0_d_49_3696" x="0" y="0.949829" width="111" height="111" filterUnits="userSpaceOnUse" color-interpolation-filters="sRGB">
<feFlood flood-opacity="0" result="BackgroundImageFix"/>
<feColorMatrix in="SourceAlpha" type="matrix" values="0 0 0 0 0 0 0 0 0 0 0 0 0 0 0 0 0 0 127 0" result="hardAlpha"/>
<feMorphology radius="8" operator="erode" in="SourceAlpha" result="effect1_dropShadow_49_3696"/>
<feOffset dy="16"/>
<feGaussianBlur stdDeviation="16"/>
<feComposite in2="hardAlpha" operator="out"/>
<feColorMatrix type="matrix" values="0 0 0 0 0.0470588 0 0 0 0 0.0470588 0 0 0 0 0.0509804 0 0 0 0.4 0"/>
<feBlend mode="normal" in2="BackgroundImageFix" result="effect1_dropShadow_49_3696"/>
<feBlend mode="normal" in="SourceGraphic" in2="effect1_dropShadow_49_3696" result="shape"/>
</filter>
<clipPath id="clip0_49_3696">
<rect width="33.6" height="33.6" fill="white" transform="translate(38.7002 23.6498)"/>
</clipPath>
</defs>
</svg>
