<svg width="112" height="112" viewBox="0 0 112 112" fill="none" xmlns="http://www.w3.org/2000/svg">
<g filter="url(#filter0_d_49_3669)">
<rect x="24.4502" y="8.94983" width="63" height="63" fill="white"/>
</g>
<g clip-path="url(#clip0_49_3669)">
<path d="M68.401 32.0498L61.201 45.2498H75.601L68.401 32.0498ZM44.401 32.0498L37.201 45.2498H51.601L44.401 32.0498ZM59.7947 28.4498C59.6197 28.9498 59.3354 29.3967 58.9416 29.7905C58.5478 30.1842 58.101 30.4686 57.601 30.6436V54.8498H69.001C69.176 54.8498 69.3197 54.9061 69.4322 55.0186C69.5447 55.1311 69.601 55.2748 69.601 55.4498V56.6498C69.601 56.8248 69.5447 56.9686 69.4322 57.0811C69.3197 57.1936 69.176 57.2498 69.001 57.2498H43.801C43.626 57.2498 43.4822 57.1936 43.3697 57.0811C43.2572 56.9686 43.201 56.8248 43.201 56.6498V55.4498C43.201 55.2748 43.2572 55.1311 43.3697 55.0186C43.4822 54.9061 43.626 54.8498 43.801 54.8498H55.201V30.6436C54.701 30.4686 54.2541 30.1842 53.8603 29.7905C53.4666 29.3967 53.1822 28.9498 53.0072 28.4498H43.801C43.626 28.4498 43.4822 28.3936 43.3697 28.2811C43.2572 28.1686 43.201 28.0248 43.201 27.8498V26.6498C43.201 26.4748 43.2572 26.3311 43.3697 26.2186C43.4822 26.1061 43.626 26.0498 43.801 26.0498H53.0072C53.2697 25.3373 53.7072 24.7592 54.3197 24.3155C54.9322 23.8717 55.626 23.6498 56.401 23.6498C57.176 23.6498 57.8697 23.8717 58.4822 24.3155C59.0947 24.7592 59.5322 25.3373 59.7947 26.0498H69.001C69.176 26.0498 69.3197 26.1061 69.4322 26.2186C69.5447 26.3311 69.601 26.4748 69.601 26.6498V27.8498C69.601 28.0248 69.5447 28.1686 69.4322 28.2811C69.3197 28.3936 69.176 28.4498 69.001 28.4498H59.7947ZM56.401 28.7498C56.8135 28.7498 57.1666 28.603 57.4604 28.3092C57.7541 28.0155 57.901 27.6623 57.901 27.2498C57.901 26.8373 57.7541 26.4842 57.4604 26.1905C57.1666 25.8967 56.8135 25.7498 56.401 25.7498C55.9885 25.7498 55.6354 25.8967 55.3416 26.1905C55.0478 26.4842 54.901 26.8373 54.901 27.2498C54.901 27.6623 55.0478 28.0155 55.3416 28.3092C55.6354 28.603 55.9885 28.7498 56.401 28.7498ZM76.801 45.2498C76.801 46.1623 76.5103 46.9811 75.9291 47.7061C75.3479 48.4311 74.6135 48.9998 73.726 49.4123C72.8385 49.8248 71.9353 50.1342 71.0166 50.3405C70.0979 50.5467 69.226 50.6498 68.401 50.6498C67.576 50.6498 66.7041 50.5467 65.7853 50.3405C64.8666 50.1342 63.9635 49.8248 63.076 49.4123C62.1885 48.9998 61.4541 48.4311 60.8729 47.7061C60.2916 46.9811 60.001 46.1623 60.001 45.2498C60.001 45.1123 60.2197 44.6061 60.6572 43.7311C61.0947 42.8561 61.6697 41.7655 62.3822 40.4592C63.0947 39.153 63.7635 37.9311 64.3885 36.7936C65.0135 35.6561 65.651 34.5061 66.301 33.3436C66.951 32.1811 67.301 31.5561 67.351 31.4686C67.576 31.0561 67.926 30.8498 68.401 30.8498C68.876 30.8498 69.226 31.0561 69.451 31.4686C69.501 31.5561 69.851 32.1811 70.501 33.3436C71.151 34.5061 71.7885 35.6561 72.4135 36.7936C73.0385 37.9311 73.7072 39.153 74.4197 40.4592C75.1322 41.7655 75.7072 42.8561 76.1447 43.7311C76.5822 44.6061 76.801 45.1123 76.801 45.2498ZM52.801 45.2498C52.801 46.1623 52.5104 46.9811 51.9291 47.7061C51.3479 48.4311 50.6135 48.9998 49.726 49.4123C48.8385 49.8248 47.9354 50.1342 47.0166 50.3405C46.0979 50.5467 45.226 50.6498 44.401 50.6498C43.576 50.6498 42.7041 50.5467 41.7854 50.3405C40.8666 50.1342 39.9635 49.8248 39.076 49.4123C38.1885 48.9998 37.4541 48.4311 36.8729 47.7061C36.2916 46.9811 36.001 46.1623 36.001 45.2498C36.001 45.1123 36.2197 44.6061 36.6572 43.7311C37.0947 42.8561 37.6697 41.7655 38.3822 40.4592C39.0947 39.153 39.7635 37.9311 40.3885 36.7936C41.0135 35.6561 41.651 34.5061 42.301 33.3436C42.951 32.1811 43.301 31.5561 43.351 31.4686C43.576 31.0561 43.926 30.8498 44.401 30.8498C44.876 30.8498 45.226 31.0561 45.451 31.4686C45.501 31.5561 45.851 32.1811 46.501 33.3436C47.151 34.5061 47.7885 35.6561 48.4135 36.7936C49.0385 37.9311 49.7072 39.153 50.4197 40.4592C51.1322 41.7655 51.7072 42.8561 52.1447 43.7311C52.5822 44.6061 52.801 45.1123 52.801 45.2498Z" fill="#285A50"/>
</g>
<defs>
<filter id="filter0_d_49_3669" x="0.450195" y="0.949829" width="111" height="111" filterUnits="userSpaceOnUse" color-interpolation-filters="sRGB">
<feFlood flood-opacity="0" result="BackgroundImageFix"/>
<feColorMatrix in="SourceAlpha" type="matrix" values="0 0 0 0 0 0 0 0 0 0 0 0 0 0 0 0 0 0 127 0" result="hardAlpha"/>
<feMorphology radius="8" operator="erode" in="SourceAlpha" result="effect1_dropShadow_49_3669"/>
<feOffset dy="16"/>
<feGaussianBlur stdDeviation="16"/>
<feComposite in2="hardAlpha" operator="out"/>
<feColorMatrix type="matrix" values="0 0 0 0 0.0470588 0 0 0 0 0.0470588 0 0 0 0 0.0509804 0 0 0 0.4 0"/>
<feBlend mode="normal" in2="BackgroundImageFix" result="effect1_dropShadow_49_3669"/>
<feBlend mode="normal" in="SourceGraphic" in2="effect1_dropShadow_49_3669" result="shape"/>
</filter>
<clipPath id="clip0_49_3669">
<rect width="40.803" height="33.6" fill="white" transform="translate(36 23.6498)"/>
</clipPath>
</defs>
</svg>
