<svg width="111" height="112" viewBox="0 0 111 112" fill="none" xmlns="http://www.w3.org/2000/svg">
<g filter="url(#filter0_d_49_3688)">
<rect x="24" y="8.94983" width="63" height="63" fill="white"/>
</g>
<path d="M45.8535 26.1761L44.3751 27.6524L46.5748 29.8511L48.0511 28.3748L45.8535 26.1761ZM65.1472 26.1761L62.9475 28.3748L64.4248 29.8511L66.6235 27.6535L65.1472 26.1761ZM55.4998 26.8313C55.1533 26.8341 54.8033 26.8565 54.4498 26.8985H54.4183C50.1595 27.3868 46.7701 30.8276 46.1811 35.0675C45.7107 38.48 47.1177 41.5744 49.4623 43.5673C50.4213 44.3859 51.0699 45.5091 51.2998 46.7488V53.0488H53.6938C54.0592 53.6756 54.726 54.0988 55.4998 54.0988C56.2737 54.0988 56.9404 53.6756 57.3058 53.0488H59.6998V48.8488H59.7985V47.6014C59.7985 46.0621 60.5986 44.5102 61.8985 43.3037C63.6373 41.5628 64.9498 39.0901 64.9498 36.2498C64.9498 31.0628 60.6805 26.783 55.4998 26.8313ZM55.4998 28.9313C59.5581 28.8746 62.8498 32.1968 62.8498 36.2498C62.8498 38.4485 61.8313 40.3847 60.4212 41.7938L60.4548 41.8274C59.054 43.1201 58.1479 44.8609 57.8928 46.7498H53.3001C53.0691 44.9501 52.2973 43.2082 50.8389 41.9587C48.9835 40.3837 47.8779 38.0107 48.2475 35.3311C48.7063 32.0236 51.3901 29.3639 54.6787 28.9996C54.9502 28.9619 55.2237 28.9395 55.4977 28.9324L55.4998 28.9313ZM40.7998 36.2498V38.3498H43.9498V36.2498H40.7998ZM67.0498 36.2498V38.3498H70.1998V36.2498H67.0498ZM46.5748 44.7485L44.3761 46.9462L45.8535 48.4235L48.0501 46.2248L46.5748 44.7485ZM64.4248 44.7485L62.9485 46.2248L65.1462 48.4235L66.6235 46.9462L64.4248 44.7485ZM53.3998 48.8498H57.5998V50.9498H53.3998V48.8498Z" fill="#214B43"/>
<defs>
<filter id="filter0_d_49_3688" x="0" y="0.949829" width="111" height="111" filterUnits="userSpaceOnUse" color-interpolation-filters="sRGB">
<feFlood flood-opacity="0" result="BackgroundImageFix"/>
<feColorMatrix in="SourceAlpha" type="matrix" values="0 0 0 0 0 0 0 0 0 0 0 0 0 0 0 0 0 0 127 0" result="hardAlpha"/>
<feMorphology radius="8" operator="erode" in="SourceAlpha" result="effect1_dropShadow_49_3688"/>
<feOffset dy="16"/>
<feGaussianBlur stdDeviation="16"/>
<feComposite in2="hardAlpha" operator="out"/>
<feColorMatrix type="matrix" values="0 0 0 0 0.0470588 0 0 0 0 0.0470588 0 0 0 0 0.0509804 0 0 0 0.4 0"/>
<feBlend mode="normal" in2="BackgroundImageFix" result="effect1_dropShadow_49_3688"/>
<feBlend mode="normal" in="SourceGraphic" in2="effect1_dropShadow_49_3688" result="shape"/>
</filter>
</defs>
</svg>
